<mxfile host="Electron" modified="2023-04-18T13:08:24.080Z" agent="Mozilla/5.0 (Macintosh; Intel Mac OS X 10_15_7) AppleWebKit/537.36 (KHTML, like Gecko) draw.io/21.1.2 Chrome/106.0.5249.199 Electron/21.4.3 Safari/537.36" etag="8tdZpwCF22AJzzsHPrpF" version="21.1.2" type="device">
  <diagram name="Page-1" id="7Va6ShMMT2abnKsQcrLD">
    <mxGraphModel dx="891" dy="559" grid="1" gridSize="10" guides="1" tooltips="1" connect="1" arrows="1" fold="1" page="0" pageScale="1" pageWidth="827" pageHeight="1169" math="1" shadow="0">
      <root>
        <mxCell id="0" />
        <mxCell id="1" parent="0" />
        <mxCell id="hybDzMwPTZGIJbmb_vma-52" style="edgeStyle=orthogonalEdgeStyle;rounded=0;orthogonalLoop=1;jettySize=auto;html=1;exitX=1;exitY=0.5;exitDx=0;exitDy=0;entryX=0;entryY=0.5;entryDx=0;entryDy=0;" edge="1" parent="1" source="hybDzMwPTZGIJbmb_vma-2" target="hybDzMwPTZGIJbmb_vma-41">
          <mxGeometry relative="1" as="geometry" />
        </mxCell>
        <mxCell id="hybDzMwPTZGIJbmb_vma-2" value="attention" style="rounded=1;whiteSpace=wrap;html=1;" vertex="1" parent="1">
          <mxGeometry x="330" y="165" width="100" height="50" as="geometry" />
        </mxCell>
        <mxCell id="hybDzMwPTZGIJbmb_vma-51" style="edgeStyle=orthogonalEdgeStyle;rounded=0;orthogonalLoop=1;jettySize=auto;html=1;exitX=1;exitY=0.5;exitDx=0;exitDy=0;entryX=0;entryY=0.5;entryDx=0;entryDy=0;" edge="1" parent="1" source="hybDzMwPTZGIJbmb_vma-37" target="hybDzMwPTZGIJbmb_vma-2">
          <mxGeometry relative="1" as="geometry" />
        </mxCell>
        <mxCell id="hybDzMwPTZGIJbmb_vma-53" value="" style="group" vertex="1" connectable="0" parent="1">
          <mxGeometry x="460" y="140" width="20" height="100" as="geometry" />
        </mxCell>
        <mxCell id="hybDzMwPTZGIJbmb_vma-41" value="" style="whiteSpace=wrap;html=1;aspect=fixed;fillColor=#6E25B8;" vertex="1" parent="hybDzMwPTZGIJbmb_vma-53">
          <mxGeometry y="40" width="20" height="20" as="geometry" />
        </mxCell>
        <mxCell id="hybDzMwPTZGIJbmb_vma-42" value="" style="whiteSpace=wrap;html=1;aspect=fixed;fillColor=#C777C7;" vertex="1" parent="hybDzMwPTZGIJbmb_vma-53">
          <mxGeometry y="80" width="20" height="20" as="geometry" />
        </mxCell>
        <mxCell id="hybDzMwPTZGIJbmb_vma-43" value="" style="whiteSpace=wrap;html=1;aspect=fixed;fillColor=#5A4385;" vertex="1" parent="hybDzMwPTZGIJbmb_vma-53">
          <mxGeometry y="60" width="20" height="20" as="geometry" />
        </mxCell>
        <mxCell id="hybDzMwPTZGIJbmb_vma-44" value="" style="whiteSpace=wrap;html=1;aspect=fixed;fillColor=#FFCCFF;" vertex="1" parent="hybDzMwPTZGIJbmb_vma-53">
          <mxGeometry width="20" height="20" as="geometry" />
        </mxCell>
        <mxCell id="hybDzMwPTZGIJbmb_vma-45" value="" style="whiteSpace=wrap;html=1;aspect=fixed;fillColor=#bf85c7;" vertex="1" parent="hybDzMwPTZGIJbmb_vma-53">
          <mxGeometry y="20" width="20" height="20" as="geometry" />
        </mxCell>
        <mxCell id="hybDzMwPTZGIJbmb_vma-54" value="" style="group" vertex="1" connectable="0" parent="1">
          <mxGeometry x="280" y="140" width="20" height="100" as="geometry" />
        </mxCell>
        <mxCell id="hybDzMwPTZGIJbmb_vma-34" value="" style="whiteSpace=wrap;html=1;aspect=fixed;fillColor=#a01fe5;" vertex="1" parent="hybDzMwPTZGIJbmb_vma-54">
          <mxGeometry width="20" height="20" as="geometry" />
        </mxCell>
        <mxCell id="hybDzMwPTZGIJbmb_vma-35" value="" style="whiteSpace=wrap;html=1;aspect=fixed;fillColor=#FF99FF;" vertex="1" parent="hybDzMwPTZGIJbmb_vma-54">
          <mxGeometry y="20" width="20" height="20" as="geometry" />
        </mxCell>
        <mxCell id="hybDzMwPTZGIJbmb_vma-36" value="" style="whiteSpace=wrap;html=1;aspect=fixed;fillColor=#9f76ea;" vertex="1" parent="hybDzMwPTZGIJbmb_vma-54">
          <mxGeometry y="60" width="20" height="20" as="geometry" />
        </mxCell>
        <mxCell id="hybDzMwPTZGIJbmb_vma-37" value="" style="whiteSpace=wrap;html=1;aspect=fixed;fillColor=#FFCCFF;" vertex="1" parent="hybDzMwPTZGIJbmb_vma-54">
          <mxGeometry y="40" width="20" height="20" as="geometry" />
        </mxCell>
        <mxCell id="hybDzMwPTZGIJbmb_vma-38" value="" style="whiteSpace=wrap;html=1;aspect=fixed;fillColor=#bf85c7;" vertex="1" parent="hybDzMwPTZGIJbmb_vma-54">
          <mxGeometry y="80" width="20" height="20" as="geometry" />
        </mxCell>
        <mxCell id="hybDzMwPTZGIJbmb_vma-56" value="$$\mathbf{x} \in \mathbb{R}^d$$" style="text;html=1;strokeColor=none;fillColor=none;align=center;verticalAlign=middle;whiteSpace=wrap;rounded=0;" vertex="1" parent="1">
          <mxGeometry x="260" y="240" width="60" height="30" as="geometry" />
        </mxCell>
        <mxCell id="hybDzMwPTZGIJbmb_vma-58" value="$$\mathbf{y} \in \mathbb{R}^d$$" style="text;html=1;strokeColor=none;fillColor=none;align=center;verticalAlign=middle;whiteSpace=wrap;rounded=0;" vertex="1" parent="1">
          <mxGeometry x="440" y="240" width="60" height="30" as="geometry" />
        </mxCell>
      </root>
    </mxGraphModel>
  </diagram>
</mxfile>
